# xmcd
#
# Track frame offsets: 
#        150
#        10272
#        28027
#        44359
#        62021
#        82337
#        100765
#        119502
#        136555
#        154979
#        172900
#        177525
#        196828
#        213336
#        232520
#        250945
#        269573
#        289261
#
# Disc length: 4073 seconds
#
# Revision: 0
# Processed by: cddbd v1.5.2PL0 Copyright (c) Steve Scherf et al.
# Submitted via: ExactAudioCopy v0.99pb4
#
DISCID=f90fe712
DTITLE=바비킴 - Heart and Soul Special Edition
DYEAR=2010
DGENRE=R&B
TTITLE0=Free
TTITLE1=너에게만
TTITLE2=남자답게
TTITLE3=흔한사랑 (feat Sean2slow)
TTITLE4=One Day
TTITLE5=떠나야만 하는 이유
TTITLE6=친구여 (feat 강산에)
TTITLE7=맴맴맴 (feat 길학미+더블K)
TTITLE8=마지막 한걸음
TTITLE9=외톨이
TTITLE10=Happiness
TTITLE11=Empty(feat. Ali , 정열(frm. 10cm)
TTITLE12=Breathe
TTITLE13=오!나의 인생
TTITLE14=외톨이 (new arrange acoustic) [Bonus]
TTITLE15=고래의 꿈 (Falling in love again feat 김영근-Bobby's father, 
TTITLE15=inst) [Bonus]
TTITLE16=파랑새 (feat 전제덕 inst)
TTITLE17=남자답게 (inst)
EXTD=
EXTT0=
EXTT1=
EXTT2=
EXTT3=
EXTT4=
EXTT5=
EXTT6=
EXTT7=
EXTT8=
EXTT9=
EXTT10=
EXTT11=
EXTT12=
EXTT13=
EXTT14=
EXTT15=
EXTT16=
EXTT17=
PLAYORDER=
